<svg height="20" viewBox="0 0 20 20" width="20" xmlns="http://www.w3.org/2000/svg" xmlns:xlink="http://www.w3.org/1999/xlink"><defs><rect id="a" height="20" rx="4" width="20"/><mask id="b" fill="#fff"><use fill="#fff" fill-rule="evenodd" xlink:href="#a"/></mask></defs><g fill="none" fill-rule="evenodd"><use fill="#fff" xlink:href="#a"/><path d="m18.5218034 0c.8164397 0 1.4781966.6418529 1.4781966 1.43269332v17.13487568c0 .7911027-.6617569 1.432431-1.4781966 1.432431h-17.0436068c-.81617569 0-1.4781966-.6413283-1.4781966-1.4321687v-17.13540029c0-.79057811.66202091-1.43243101 1.4781966-1.43243101zm-12.45908563 7.71089078h-3.02080034v9.03105652h3.0210643zm7.41526763-.21167769c-1.551855 0-2.2748282.82080886-2.6835646 1.43145894l-.0394208.05832797.000464-1.27784692h-3.02053633c.01111517.23943607.01592677 1.0648282.01710994 2.12586063l.00013954 1.03613709c-.00006127.0902212-.00013913.1811989-.00023238.2727737l-.00073431.5553379c-.00314794 1.95983-.0120053 4.0423277-.01529556 4.7708094l-.00077884.1700181c-.00010132.0217705-.00018757.0401517-.00025755.0549843l-.0002148.0448731h3.02053639v-5.0427552c0-.2696464.0197973-.5398174.0995143-.7323471.218298-.5395551.7153416-1.09799598 1.5499947-1.09799598 1.0928096 0 1.5301975.82808728 1.5301975 2.04228308v4.8308152h3.0205363v-5.178103c0-2.77384325-1.4900749-4.06463121-3.4774575-4.06463121zm-8.90507863-4.14174798c-1.03394573 0-1.70916482.67411605-1.70916482 1.56043438 0 .86664568.65542181 1.56017207 1.6693063 1.56017207h.01953331c1.05347905 0 1.70916482-.69352639 1.70916482-1.56017207-.01979727-.88631833-.65568577-1.56043438-1.68883961-1.56043438z" fill="#08111b" fill-rule="nonzero" mask="url(#b)"/></g></svg>