<svg height="28" viewBox="0 0 155 28" width="155" xmlns="http://www.w3.org/2000/svg"><g fill="none" fill-rule="evenodd"><path d="m53.796 20 1.818-6.966 1.818 6.966h2.718l2.916-9.972h-2.412l-1.764 7.578-1.872-7.578h-2.664l-1.908 7.596-1.764-7.596h-2.556l2.934 9.972zm14.994.162c1.188 0 2.19-.309 3.006-.927s1.368-1.407 1.656-2.367h-2.718c-.396.804-1.062 1.206-1.998 1.206-.648 0-1.194-.204-1.638-.612s-.696-.972-.756-1.692h7.29c.048-.288.072-.612.072-.972 0-.972-.207-1.833-.621-2.583s-.996-1.329-1.746-1.737-1.599-.612-2.547-.612c-.984 0-1.854.21-2.61.63s-1.344 1.02-1.764 1.8-.63 1.686-.63 2.718c0 1.02.213 1.92.639 2.7s1.02 1.383 1.782 1.809 1.623.639 2.583.639zm2.304-6.084h-4.734c.096-.672.357-1.197.783-1.575s.951-.567 1.575-.567c.66 0 1.218.195 1.674.585s.69.909.702 1.557zm10.26 6.084c.852 0 1.623-.216 2.313-.648s1.236-1.041 1.638-1.827.603-1.689.603-2.709-.201-1.917-.603-2.691-.948-1.371-1.638-1.791-1.461-.63-2.313-.63c-.732 0-1.383.15-1.953.45s-1.017.69-1.341 1.17v-4.806h-2.52v13.32h2.52v-1.422c.336.468.783.849 1.341 1.143s1.209.441 1.953.441zm-.666-2.214c-.456 0-.885-.117-1.287-.351s-.726-.573-.972-1.017-.369-.966-.369-1.566.123-1.122.369-1.566.57-.783.972-1.017.831-.351 1.287-.351c.468 0 .903.114 1.305.342s.726.561.972.999.369.957.369 1.557c0 .612-.123 1.14-.369 1.584s-.57.786-.972 1.026-.837.36-1.305.36zm10.872 2.214c.792 0 1.485-.129 2.079-.387s1.05-.615 1.368-1.071.477-.972.477-1.548c-.012-.66-.189-1.191-.531-1.593s-.747-.699-1.215-.891-1.062-.378-1.782-.558c-.708-.18-1.23-.357-1.566-.531s-.504-.429-.504-.765c0-.3.123-.534.369-.702s.597-.252 1.053-.252c.492 0 .885.117 1.179.351s.459.549.495.945h2.412c-.072-1.008-.462-1.809-1.17-2.403s-1.656-.891-2.844-.891c-.804 0-1.503.132-2.097.396s-1.05.624-1.368 1.08-.477.96-.477 1.512c0 .672.171 1.206.513 1.602s.75.69 1.224.882 1.083.378 1.827.558c.72.192 1.245.369 1.575.531s.495.405.495.729c0 .3-.135.546-.405.738s-.645.288-1.125.288c-.492 0-.903-.126-1.233-.378s-.519-.57-.567-.954h-2.538c.036.612.243 1.17.621 1.674s.891.903 1.539 1.197 1.38.441 2.196.441zm7.272-11.322c.444 0 .813-.141 1.107-.423s.441-.633.441-1.053-.147-.771-.441-1.053-.663-.423-1.107-.423-.813.141-1.107.423-.441.633-.441 1.053.147.771.441 1.053.663.423 1.107.423zm1.242 11.16v-9.972h-2.52v9.972zm7.65 0v-2.124h-1.17c-.384 0-.657-.075-.819-.225s-.243-.393-.243-.729v-4.824h2.232v-2.07h-2.232v-2.466h-2.538v2.466h-1.188v2.07h1.188v4.806c0 2.064 1.062 3.096 3.186 3.096zm6.174.162c1.188 0 2.19-.309 3.006-.927s1.368-1.407 1.656-2.367h-2.718c-.396.804-1.062 1.206-1.998 1.206-.648 0-1.194-.204-1.638-.612s-.696-.972-.756-1.692h7.29c.048-.288.072-.612.072-.972 0-.972-.207-1.833-.621-2.583s-.996-1.329-1.746-1.737-1.599-.612-2.547-.612c-.984 0-1.854.21-2.61.63s-1.344 1.02-1.764 1.8-.63 1.686-.63 2.718c0 1.02.213 1.92.639 2.7s1.02 1.383 1.782 1.809 1.623.639 2.583.639zm2.304-6.084h-4.734c.096-.672.357-1.197.783-1.575s.951-.567 1.575-.567c.66 0 1.218.195 1.674.585s.69.909.702 1.557zm9.612 5.922v-2.124h-1.17c-.384 0-.657-.075-.819-.225s-.243-.393-.243-.729v-4.824h2.232v-2.07h-2.232v-2.466h-2.538v2.466h-1.188v2.07h1.188v4.806c0 2.064 1.062 3.096 3.186 3.096zm5.706.162c.744 0 1.401-.153 1.971-.459s1.017-.693 1.341-1.161v1.458h2.538v-9.972h-2.538v1.422c-.336-.456-.783-.834-1.341-1.134s-1.209-.45-1.953-.45c-.852 0-1.623.21-2.313.63s-1.236 1.02-1.638 1.8-.603 1.674-.603 2.682c0 1.02.201 1.923.603 2.709s.948 1.395 1.638 1.827 1.455.648 2.295.648zm.666-2.214c-.456 0-.885-.12-1.287-.36s-.726-.585-.972-1.035-.369-.975-.369-1.575.123-1.119.369-1.557.567-.771.963-.999.828-.342 1.296-.342.906.117 1.314.351.732.57.972 1.008.36.963.36 1.575-.12 1.137-.36 1.575-.564.774-.972 1.008-.846.351-1.314.351zm10.17 2.052v-13.32h-2.52v13.32zm5.004 0v-4.248l3.384 4.248h3.276l-4.428-4.968 4.392-5.004h-3.276l-3.348 4.23v-7.578h-2.52v13.32z" fill="#08111b" fill-rule="nonzero"/><rect fill="#fece00" height="24" rx="6" transform="matrix(.8660254 -.5 .5 .8660254 -5.392305 7.875644)" width="12" x="6" y="2"/><rect fill="#ff3700" height="24" rx="6" transform="matrix(.8660254 -.5 .5 .8660254 -3.78461 13.875644)" width="12" x="18" y="2"/><rect fill="#ff7301" height="24" rx="6" transform="matrix(.8660254 .5 -.5 .8660254 9.411543 -7.124356)" width="12" x="12" y="2"/><rect fill="#bf031f" height="24" rx="6" transform="matrix(.8660254 .5 -.5 .8660254 11.019238 -13.124356)" width="12" x="24" y="2"/></g></svg>