<svg height="16" viewBox="0 0 16 16" width="16" xmlns="http://www.w3.org/2000/svg"><path d="m325 657c.441828 0 .8.358172.8.8s-.358172.8-.8.8h-6.4v12.8h12.8v-6.4c0-.441828.358172-.8.8-.8s.8.358172.8.8v7.2c0 .441828-.358172.8-.8.8h-14.4c-.441828 0-.8-.358172-.8-.8v-14.4c0-.441828.358172-.8.8-.8zm7.2 0c.1049.000501.208698.021424.3056.0616.298917.123556.494024.414953.4944.7384v4c0 .441828-.358172.8-.8.8s-.8-.358172-.8-.8v-2.0688l-5.8344 5.8344c-.20086.207965-.498302.29137-.778006.218158-.279703-.073213-.498139-.291649-.571352-.571352-.073212-.279704.010193-.577146.218158-.778006l5.8344-5.8344h-2.0688c-.441828 0-.8-.358172-.8-.8s.358172-.8.8-.8z" fill="#fff" transform="translate(-317 -657)"/></svg>